<svg xmlns="http://www.w3.org/2000/svg" width="16.609" height="20.441" viewBox="0 0 16.609 20.441">
  <g id="trash" transform="translate(-48)">
    <path id="Контур_18195" data-name="Контур 18195" d="M63.012,2.555H59.5V1.916A1.916,1.916,0,0,0,57.582,0H55.027A1.916,1.916,0,0,0,53.11,1.916v.639H49.6a1.6,1.6,0,0,0-1.6,1.6V5.43a.639.639,0,0,0,.639.639H63.97a.639.639,0,0,0,.639-.639V4.152A1.6,1.6,0,0,0,63.012,2.555Zm-8.624-.639a.64.64,0,0,1,.639-.639h2.555a.64.64,0,0,1,.639.639v.639H54.388Z" fill="#1b222c"/>
    <path id="Контур_18196" data-name="Контур 18196" d="M73.564,184a.2.2,0,0,0-.2.209l.527,11.061a1.914,1.914,0,0,0,1.914,1.825h9.7a1.914,1.914,0,0,0,1.914-1.825l.527-11.061a.2.2,0,0,0-.2-.209Zm9.647,1.6a.639.639,0,0,1,1.278,0v8.3a.639.639,0,1,1-1.278,0Zm-3.194,0a.639.639,0,0,1,1.278,0v8.3a.639.639,0,0,1-1.278,0Zm-3.194,0a.639.639,0,0,1,1.278,0v8.3a.639.639,0,1,1-1.278,0Z" transform="translate(-24.352 -176.654)" fill="#1b222c"/>
  </g>
</svg>
