<svg xmlns="http://www.w3.org/2000/svg" width="63.5" height="63.5" viewBox="0 0 63.5 63.5">
  <path id="Исключение_2" data-name="Исключение 2" d="M-1513.5,1965.5H-1577V1902h63.5v63.5Zm-12.532-23.272a3.1,3.1,0,0,0-1.332,2.646,3.239,3.239,0,0,0,.945,2.372,3.174,3.174,0,0,0,2.331.949,3.175,3.175,0,0,0,2.344-.941,3.168,3.168,0,0,0,.932-2.308,3.289,3.289,0,0,0-.374-1.638,3.7,3.7,0,0,0-1.048-1.152l-.936,1.314a2.567,2.567,0,0,1,.572.639,1.5,1.5,0,0,1,.193.783,1.378,1.378,0,0,1-.481,1.08,1.761,1.761,0,0,1-1.2.423,1.768,1.768,0,0,1-1.2-.423,1.373,1.373,0,0,1-.486-1.08,1.74,1.74,0,0,1,.729-1.386Zm-40.222-3.348c-.538.589-1.4,1.543-2.237,2.466-.684.756-1.392,1.537-1.9,2.091a13.153,13.153,0,0,0,2.587,2.469,12.2,12.2,0,0,0,7.025,2.013,13.237,13.237,0,0,0,4.147-.636,8.361,8.361,0,0,0,4.429-3.125,10.326,10.326,0,0,0,1.724-5.828l-.031-18.74-9.987-.008-3.137,6.17,5.891,0,0,12.145a4.421,4.421,0,0,1-.864,2.8,3.459,3.459,0,0,1-2.8.95C-1563.643,1941.65-1565.4,1939.915-1566.254,1938.88Zm20.172.29h0c-.464.453-2.586,2.808-3.854,4.215l-.621.688c3.655,2.693,6.751,3.792,10.687,3.792a12.856,12.856,0,0,0,8.677-3.272,7.576,7.576,0,0,0,.835-9.8c-1.612-2.119-4.817-3.3-7.392-4.245-1.985-.73-3.7-1.361-4.222-2.217a1.375,1.375,0,0,1-.027-1.393,2.678,2.678,0,0,1,2.25-1.264c2.259.151,3.326.49,6.013,1.912.516-.562,3.107-3.392,3.964-4.339a12.6,12.6,0,0,0-8.865-3.606c-4.951.056-10.458,2.641-10.848,8.183a7.616,7.616,0,0,0,1.889,5.329c1.726,1.846,3.943,2.658,6.087,3.444a22.916,22.916,0,0,1,3.946,1.736c.794.476,1.533,1.376,1,2.345-.363.659-1.2.994-2.479.994a12.923,12.923,0,0,1-4.34-.895,8.188,8.188,0,0,1-2-1.113c-.2-.14-.419-.3-.7-.489Zm21.994-4.061a3.148,3.148,0,0,0-2.327.967,3.328,3.328,0,0,0-.949,2.417,3.349,3.349,0,0,0,.954,2.426,3.139,3.139,0,0,0,2.322.976,3.146,3.146,0,0,0,2.327-.967,3.325,3.325,0,0,0,.949-2.417,3.346,3.346,0,0,0-.954-2.426A3.136,3.136,0,0,0-1524.089,1935.109Zm-.981-6.408a2.031,2.031,0,0,0-1.494.558,2.8,2.8,0,0,0-.675,2.052v2.979h6.3v-1.746h-1.908v-.765l1.908-1.269v-2.016l-2.2,1.5A1.957,1.957,0,0,0-1525.069,1928.7Zm.063-6.111a2.032,2.032,0,0,0-1.643.707,2.907,2.907,0,0,0-.589,1.912v2.7h6.3v-1.746h-1.8v-.864a3.072,3.072,0,0,0-.594-1.962A2.025,2.025,0,0,0-1525.006,1922.59Zm2.313-1.449v1.782h1.755v-1.782Zm-1.4,18.963a1.747,1.747,0,0,1-1.206-.446,1.482,1.482,0,0,1-.495-1.147,1.515,1.515,0,0,1,.5-1.161,1.721,1.721,0,0,1,1.2-.459,1.744,1.744,0,0,1,1.206.445,1.489,1.489,0,0,1,.5,1.156,1.5,1.5,0,0,1-.5,1.156A1.729,1.729,0,0,1-1524.089,1940.1Zm-.126-7.56h-1.512V1931.4a1.131,1.131,0,0,1,.189-.7.662.662,0,0,1,.558-.248.69.69,0,0,1,.563.248,1.061,1.061,0,0,1,.2.688v1.151Zm.108-6.381h-1.665v-.819a1.174,1.174,0,0,1,.211-.743.745.745,0,0,1,.617-.266.761.761,0,0,1,.612.266,1.1,1.1,0,0,1,.225.734v.827Z" transform="translate(1577 -1902.001)" fill="#25C1E8"/>
</svg>
