<svg id="menu" xmlns="http://www.w3.org/2000/svg" width="28.814" height="25.756" viewBox="0 0 28.814 25.756">
  <path id="Контур_20453" data-name="Контур 20453" d="M27.613,126.752H1.2c-.663,0-1.2-.915-1.2-2.042s.538-2.042,1.2-2.042H27.613c.663,0,1.2.915,1.2,2.042S28.276,126.752,27.613,126.752Zm0,0" transform="translate(0 -111.832)" fill="#1b222c"/>
  <path id="Контур_20454" data-name="Контур 20454" d="M27.613,4.084H1.2C.538,4.084,0,3.169,0,2.042S.538,0,1.2,0H27.613c.663,0,1.2.915,1.2,2.042S28.276,4.084,27.613,4.084Zm0,0" fill="#1b222c"/>
  <path id="Контур_20455" data-name="Контур 20455" d="M27.613,249.416H1.2c-.663,0-1.2-.915-1.2-2.042s.538-2.042,1.2-2.042H27.613c.663,0,1.2.915,1.2,2.042S28.276,249.416,27.613,249.416Zm0,0" transform="translate(0 -223.66)" fill="#1b222c"/>
</svg>
