<svg id="instagram" xmlns="http://www.w3.org/2000/svg" width="42.498" height="42.498" viewBox="0 0 42.498 42.498">
  <path id="Контур_1902" data-name="Контур 1902" d="M30.993,0H11.5A11.517,11.517,0,0,0,0,11.5V30.994A11.517,11.517,0,0,0,11.5,42.5H30.993a11.517,11.517,0,0,0,11.5-11.5V11.5A11.517,11.517,0,0,0,30.993,0ZM21.248,32.869a11.62,11.62,0,1,1,11.62-11.62A11.633,11.633,0,0,1,21.248,32.869Zm11.9-20.5A3.434,3.434,0,1,1,36.58,8.935,3.437,3.437,0,0,1,33.146,12.369Zm0,0" transform="translate(0.001 0)" fill="#a6b6cc"/>
  <path id="Контур_1903" data-name="Контур 1903" d="M155.149,146.02a9.129,9.129,0,1,0,9.129,9.129A9.139,9.139,0,0,0,155.149,146.02Zm0,0" transform="translate(-133.9 -133.9)" fill="#a6b6cc"/>
  <path id="Контур_1904" data-name="Контур 1904" d="M388.935,96.3a.942.942,0,1,0,.943.942A.943.943,0,0,0,388.935,96.3Zm0,0" transform="translate(-355.788 -88.307)" fill="#a6b6cc"/>
</svg>
